# xmcd
#
# Track frame offsets:
#	150
#	14147
#	28081
#	42589
#	58796
#	74398
#	90196
#	104177
#	115966
#	128349
#	144805
#	159120
#	175233
#	187131
#	205923
#	220039
#	238997
#	252977
#	267093
#	283712
#	300709
#	321017
#
# Disc length: 4500 seconds
#
# Revision: 1
# Processed by: cddbd v1.5.2PL0 Copyright (c) Steve Scherf et al.
# Submitted via: audiograbber 1.83.01
#
DISCID=45119216
DTITLE=Various Artist - Cream Of Country 2020
DYEAR=2020
DGENRE=Country
TTITLE0=Luke Combs - Beer Never Broke My Heart
TTITLE1=Old Dominion - One Man Band
TTITLE2=Kane Brown - Good As You
TTITLE3=Miranda Lambert - It All Comes Out In The Wash
TTITLE4=Jon Pardi - Heartache Medication
TTITLE5=Brett Eldredge - Love Someone
TTITLE6=Dylan Scott - Nothing To Do Town
TTITLE7=Lil Nas X feat. Billy Ray Cyrus - Old Town Road (Remix)
TTITLE8=Kelsea Ballerini - Homecoming Queen?
TTITLE9=Michael Ray - One That Got Away
TTITLE10=Chris Young - Drowning
TTITLE11=Niko Moon - Good Time
TTITLE12=Carlton Anderson - Drop Everything
TTITLE13=Maren Morris - GIRL
TTITLE14=Seaforth - Love That
TTITLE15=Brooks and Dunn with LANCO - Mama Don't Get Dressed Up For Nothing
TTITLE16=Mitchell Tenpenny - Alcohol You Later
TTITLE17=Maddie and Tae - Die From A Broken Heart
TTITLE18=Scotty McCreery - In Between
TTITLE19=Tim McGraw - Thought About You
TTITLE20=Davisson Brothers Band - Unbreak You
TTITLE21=Gone West - What Could've Been
EXTD=
EXTT0=
EXTT1=
EXTT2=
EXTT3=
EXTT4=
EXTT5=
EXTT6=
EXTT7=
EXTT8=
EXTT9=
EXTT10=
EXTT11=
EXTT12=
EXTT13=
EXTT14=
EXTT15=
EXTT16=
EXTT17=
EXTT18=
EXTT19=
EXTT20=
EXTT21=
PLAYORDER=
